#!Matlab matrix to amc conversion
:FULLY-SPECIFIED
:DEGREES
241
root -2.736943 1.393737 95.208301 5.680940 -4.745532 2.556830
lowerback -5.420075 0.615292 -3.666859
upperback -1.442101 0.988999 0.401195
thorax 1.426877 0.492216 2.509826
lowerneck -22.961585 -2.172331 -10.999032
upperneck 27.996130 -2.108438 9.964381
head 13.540705 -0.730291 5.491772
rclavicle -0.000000 -0.000000
rhumerus -29.817240 17.645179 -90.102312
rradius 33.041594
rwrist -16.538455
rhand -28.856200 -18.800500
rfingers 7.125020
rthumb -2.212790 -48.768800
lclavicle -0.000000 -0.000000
lhumerus -38.603410 13.641237 78.015281
lradius 11.706189
lwrist -23.408947
lhand -19.668800 -28.799300
lfingers 7.125020
lthumb 6.659510 1.076010
rfemur -19.420707 -5.299427 17.333658
rtibia 71.138816
rfoot 1.740586 -17.498193
rtoes -20.766800
lfemur -16.589185 5.380430 -28.553052
ltibia 17.502834
lfoot -7.637920 2.512355
ltoes -22.051700
242
root -2.734605 1.423342 95.568414 5.545732 -3.827037 2.189073
lowerback -5.610749 0.047405 -3.259120
upperback -1.425396 0.218696 0.723683
thorax 1.606711 0.103834 2.571534
lowerneck -22.817933 -1.854647 -10.721082
upperneck 28.703071 -1.675240 9.545454
head 13.733041 -0.582994 5.383227
rclavicle -0.000000 -0.000000
rhumerus -31.364563 17.923534 -90.519295
rradius 32.393703
rwrist -16.188824
rhand -28.856200 -18.800500
rfingers 7.125020
rthumb -2.212790 -48.768800
lclavicle -0.000000 -0.000000
lhumerus -35.382727 8.634514 82.613279
lradius 13.327726
lwrist -17.942648
lhand -19.668800 -28.799300
lfingers 7.125020
lthumb 6.659510 1.076010
rfemur -22.699546 -5.775603 18.502243
rtibia 71.297482
rfoot -1.986250 -16.341205
rtoes -20.766800
lfemur -14.781919 4.164084 -28.164933
ltibia 17.524529
lfoot -9.027262 2.803607
ltoes -22.051700
243
root -2.737398 1.428278 95.927856 5.381480 -2.702385 1.717372
lowerback -5.580110 -0.491956 -2.897630
upperback -1.437036 -0.518517 1.072536
thorax 1.646522 -0.265513 2.688524
lowerneck -22.640711 -1.667618 -10.557270
upperneck 29.215193 -1.431616 9.281785
head 13.869367 -0.507838 5.314751
rclavicle -0.000000 -0.000000
rhumerus -33.323036 18.094167 -90.874569
rradius 32.044958
rwrist -16.027151
rhand -28.856200 -18.800500
rfingers 7.125020
rthumb -2.212790 -48.768800
lclavicle -0.000000 -0.000000
lhumerus -32.306754 3.536857 86.053447
lradius 15.297242
lwrist -13.066439
lhand -19.668800 -28.799300
lfingers 7.125020
lthumb 6.659510 1.076010
rfemur -25.491718 -6.331145 19.963926
rtibia 69.980334
rfoot -4.937138 -14.593421
rtoes -20.766800
lfemur -13.167017 3.346513 -27.602654
ltibia 18.114020
lfoot -10.575215 2.550567
ltoes -22.051700
244
root -2.741605 1.413547 96.289984 5.247498 -1.594840 1.557838
lowerback -5.547072 -1.001357 -2.902699
upperback -1.433129 -1.201178 1.317944
thorax 1.697380 -0.607454 2.905284
lowerneck -22.557559 -1.541136 -10.447697
upperneck 29.637052 -1.263454 9.106033
head 14.002879 -0.456825 5.274964
rclavicle -0.000000 -0.000000
rhumerus -35.347538 18.384527 -91.246438
rradius 32.095813
rwrist -16.290804
rhand -28.856200 -18.800500
rfingers 7.125020
rthumb -2.212790 -48.768800
lclavicle -0.000000 -0.000000
lhumerus -29.518436 -1.639489 88.731515
lradius 17.409419
lwrist -8.390070
lhand -19.668800 -28.799300
lfingers 7.125020
lthumb 6.659510 1.076010
rfemur -27.860764 -6.869371 20.918533
rtibia 67.882903
rfoot -7.170651 -12.680593
rtoes -20.766800
lfemur -11.770488 2.662009 -27.369469
ltibia 18.884801
lfoot -12.260551 2.186602
ltoes -22.051700
245
root -2.748622 1.385273 96.653373 5.150583 -0.638316 1.679266
lowerback -5.599359 -1.500256 -3.207096
upperback -1.416063 -1.855656 1.477618
thorax 1.808118 -0.935904 3.198831
lowerneck -22.599177 -1.386072 -10.314662
upperneck 30.153117 -1.042865 8.909975
head 14.195025 -0.382562 5.238631
rclavicle 0.000000 -0.000000
rhumerus -37.361965 18.888140 -91.729019
rradius 32.463117
rwrist -16.969042
rhand -28.856200 -18.800500
rfingers 7.125020
rthumb -2.212790 -48.768800
lclavicle 0.000000 -0.000000
lhumerus -26.980158 -6.833149 90.799036
lradius 19.567531
lwrist -3.928288
lhand -19.668800 -28.799300
lfingers 7.125020
lthumb 6.659510 1.076010
rfemur -29.961551 -7.320800 21.351915
rtibia 65.223661
rfoot -8.903454 -10.750185
rtoes -20.766800
lfemur -10.542315 2.031731 -27.477051
ltibia 19.794804
lfoot -14.130392 1.817634
ltoes -22.051700
